<?xml version="1.0" encoding="UTF-8" standalone="no"?>
<!-- Created with Inkscape (http://www.inkscape.org/) -->

<svg
   width="210mm"
   height="297mm"
   viewBox="0 0 210 297"
   version="1.1"
   id="svg1"
   xmlns="http://www.w3.org/2000/svg"
   xmlns:svg="http://www.w3.org/2000/svg">
  <defs
     id="defs1" />
  <g
     id="layer1">
    <circle
       style="fill:#000000;stroke-width:0.264583"
       id="path1"
       cx="50.078465"
       cy="85.282135"
       r="8.4290485" />
    <ellipse
       style="fill:#000000;stroke-width:0.264583"
       id="path2"
       cx="135.11269"
       cy="96.934052"
       rx="14.626878"
       ry="16.114357" />
    <ellipse
       style="fill:#000000;stroke-width:0.264583"
       id="path3"
       cx="89.496658"
       cy="144.7813"
       rx="25.039232"
       ry="20.32888" />
    <path
       style="fill:#000000;stroke-width:0.264583"
       id="path4"
       d="m 58.96434,41.975148 c 3.715636,6.797937 7.274464,13.677484 10.856449,20.546258 4.239937,8.308845 8.823844,16.432191 13.640546,24.418377 2.241394,3.661836 4.372364,7.404084 7.000137,10.809139 0.996365,1.15502 1.865365,2.410068 2.686812,3.692668 0,0 3.517164,1.54733 3.517164,1.54733 v 0 C 95.841652,101.69267 94.97347,100.41791 93.971598,99.250922 91.187301,95.813059 88.860108,92.048718 86.52893,88.296627 81.613385,80.334587 77.037336,72.165408 72.756706,63.844574 69.295073,57.123803 65.817543,50.408974 62.49177,43.620142 Z" />
    <path
       style="fill:#000000;stroke-width:0.264583"
       id="path5"
       d="m 102.00215,90.766394 c 1.21505,-3.216 3.01828,-6.217748 5.22102,-8.854409 0.96705,-1.157554 2.02391,-2.237028 3.03586,-3.355541 7.2885,-7.551131 16.0973,-13.312036 25.02774,-18.707573 4.14251,-2.437347 8.3719,-4.724 12.64581,-6.921227 0,0 -3.01278,-1.969561 -3.01278,-1.969561 v 0 c -4.14515,2.329108 -8.26513,4.703966 -12.35116,7.135412 -8.89557,5.509506 -17.71321,11.288541 -25.1229,18.752191 -2.19099,2.274628 -3.64643,3.61389 -5.47522,6.090094 -1.35349,1.83265 -2.408051,3.915505 -3.421575,5.948294 z" />
    <path
       style="fill:#000000;stroke-width:0.264583"
       id="path6"
       d="m 110.06028,120.07161 c 2.24867,-0.46133 3.9492,0.49142 5.84427,1.57484 -0.67893,-0.35755 -1.27801,-0.95849 -2.0368,-1.07265 -0.51904,-0.0781 0.84608,0.62219 1.25227,0.95462 1.69252,1.38517 3.19662,2.99671 4.69265,4.58526 2.96605,3.22777 5.11638,7.05051 7.22261,10.86303 1.7714,3.13731 3.00212,6.48762 3.87734,9.97008 0.7336,3.31197 0.99251,6.69486 1.15969,10.07455 0.0792,1.78437 0.098,3.57017 0.0998,5.35599 0,0 3.41044,1.73296 3.41044,1.73296 v 0 c -0.0378,-1.80315 -0.0722,-3.60689 -0.16733,-5.40816 -0.19572,-3.39164 -0.4102,-6.7975 -1.10936,-10.13014 -0.88365,-3.53222 -2.13429,-6.93466 -3.94511,-10.10767 -2.11362,-3.80318 -4.18904,-7.65951 -7.11983,-10.91588 -3.04177,-3.31797 -6.13136,-6.31301 -10.28556,-8.28274 -2.02185,-1.09728 -3.77996,-1.88977 -6.12361,-1.45927 z" />
    <path
       style="fill:#000000;stroke-width:0.264583"
       id="path7"
       d="m 72.841984,115.35466 c -2.009396,2.50537 -3.996997,5.0034 -6.202452,7.34309 -2.413688,2.5364 -5.315929,4.50577 -8.042373,6.67888 -2.705603,2.43978 -5.25386,5.15419 -7.257373,8.20698 -1.230082,1.94447 -2.328963,3.96779 -3.626977,5.86898 -0.652581,1.06992 -0.332904,0.54316 -0.959268,1.58012 0,0 3.341193,1.93578 3.341193,1.93578 v 0 c 0.61219,-1.03533 0.30059,-0.51213 0.935053,-1.56944 1.281213,-1.91501 2.374919,-3.94165 3.552468,-5.92057 1.956578,-3.04195 4.437478,-5.75395 7.162604,-8.1252 2.727436,-2.20049 5.703269,-4.11052 8.069742,-6.72506 2.179804,-2.36309 4.17989,-4.87672 6.371267,-7.22443 z" />
  </g>
</svg>
